<?xml version="1.0" standalone="no"?>
<!DOCTYPE svg PUBLIC "-//W3C//DTD SVG 20010904//EN"
 "http://www.w3.org/TR/2001/REC-SVG-20010904/DTD/svg10.dtd">
<svg version="1.0" xmlns="http://www.w3.org/2000/svg"
 width="300.000000pt" height="300.000000pt" viewBox="0 0 300.000000 300.000000"
 preserveAspectRatio="xMidYMid meet">
<metadata>
Created by potrace 1.14, written by Peter Selinger 2001-2017
</metadata>
<g transform="translate(0.000000,300.000000) scale(0.100000,-0.100000)"
fill="#000000" stroke="none">
<path d="M314 2176 c-28 -28 -34 -42 -34 -76 0 -34 6 -48 34 -76 28 -28 42
-34 76 -34 34 0 48 6 76 34 48 48 48 104 0 152 -28 28 -42 34 -76 34 -34 0
-48 -6 -76 -34z"/>
<path d="M1706 1859 c-84 -73 -169 -215 -212 -352 -14 -45 -27 -66 -60 -92
-23 -19 -45 -35 -49 -35 -4 0 -5 32 -3 70 3 39 1 73 -4 76 -5 4 -26 -13 -46
-37 -118 -137 -145 -149 -150 -67 -4 65 20 111 83 159 61 46 105 58 124 35 7
-9 11 -23 7 -31 -8 -21 7 -19 38 6 52 41 22 66 -67 54 -63 -9 -70 -12 -174
-89 -79 -57 -83 -62 -83 -98 0 -21 6 -54 14 -72 27 -64 110 -56 170 17 37 45
39 44 51 -25 3 -21 10 -38 14 -38 4 0 28 13 52 29 24 17 44 29 45 28 1 -1 -2
-26 -8 -56 -5 -29 -8 -54 -6 -56 2 -2 15 -1 31 2 24 5 27 10 25 37 -1 17 4 41
10 53 15 27 166 143 186 143 3 0 0 -12 -6 -26 -12 -26 -55 -54 -83 -54 -10 0
-15 -10 -15 -32 1 -48 16 -118 28 -130 15 -15 91 15 149 59 l46 35 32 -18 c48
-26 104 -7 142 46 15 22 31 40 35 40 4 0 10 -22 14 -50 4 -30 12 -50 19 -50 7
0 40 20 73 45 l61 44 -6 -64 c-4 -42 -2 -65 4 -65 19 0 29 24 41 90 10 59 16
69 58 108 26 24 51 39 55 35 4 -4 13 -57 19 -118 6 -60 13 -111 15 -114 6 -5
135 73 163 99 20 19 31 70 15 70 -5 0 -34 -23 -66 -50 -32 -28 -63 -47 -69
-44 -9 6 -8 27 8 188 6 57 6 58 -17 51 -13 -5 -46 -25 -74 -46 -27 -21 -51
-36 -53 -34 -2 2 4 27 13 55 9 28 15 54 12 56 -6 7 -70 -25 -79 -39 -3 -6 -9
-36 -13 -68 -6 -55 -9 -59 -67 -108 -33 -28 -64 -51 -69 -51 -6 0 -7 30 -3 75
8 94 3 93 -91 -11 -36 -41 -73 -74 -80 -74 -24 0 -35 35 -28 86 8 58 61 122
130 155 37 18 49 20 70 10 18 -8 24 -17 20 -31 -7 -27 5 -25 38 6 28 25 28 27
10 40 -22 17 -36 17 -103 4 -38 -7 -74 -26 -139 -73 -81 -58 -88 -66 -91 -101
-3 -40 -41 -82 -125 -139 -39 -27 -42 -27 -55 -10 -7 10 -12 36 -10 58 2 32 7
41 24 43 12 2 45 25 75 51 51 46 53 49 41 75 -12 26 -12 26 -48 11 -39 -16
-122 -73 -166 -113 -32 -30 -47 -23 -26 10 8 13 17 40 21 60 14 88 180 347
214 334 8 -3 17 -6 19 -6 25 0 -59 -163 -122 -237 -34 -40 -49 -51 -55 -41 -5
8 -12 9 -18 3 -13 -13 -21 -85 -10 -85 13 0 120 88 157 128 64 70 122 154 122
177 0 12 -14 41 -30 63 -37 52 -65 54 -114 11z"/>
<path d="M1115 1821 c-75 -18 -89 -36 -197 -246 -87 -169 -94 -166 -52 20 21
93 24 118 14 130 -7 8 -18 15 -24 15 -6 0 -30 -44 -54 -98 -52 -118 -130 -254
-142 -247 -30 19 -60 216 -46 309 6 40 10 46 32 46 28 0 31 11 7 32 -39 34
-64 41 -82 24 -14 -14 -16 -43 -16 -189 0 -110 5 -195 14 -234 13 -59 16 -63
41 -63 35 0 74 43 126 139 22 39 42 71 45 71 4 0 9 -31 11 -70 6 -84 26 -120
62 -113 21 4 36 28 94 147 38 77 80 167 92 198 l23 58 50 -2 c42 0 53 3 68 23
25 32 24 45 -3 53 -13 3 -25 5 -28 5 -3 -1 -18 -4 -35 -8z"/>
<path d="M2094 1773 c-24 -74 -44 -97 -44 -50 0 16 -6 22 -25 23 -18 1 -25 -3
-25 -16 0 -22 -25 -44 -41 -34 -8 5 -4 12 12 25 19 14 21 21 12 30 -14 14 -46
4 -41 -13 3 -7 -5 -21 -16 -31 -12 -10 -15 -15 -8 -12 7 4 22 -1 32 -10 11
-10 20 -12 24 -6 4 6 13 8 21 5 8 -4 15 3 17 18 4 28 22 27 26 -2 2 -11 11
-20 20 -21 9 -1 26 -2 37 -3 14 -1 25 10 38 38 22 50 22 69 -1 31 -11 -16 -26
-36 -35 -43 -13 -11 -15 -10 -10 7 3 12 10 21 15 21 5 0 6 4 3 10 -3 5 -1 19
5 30 7 14 8 20 0 20 -6 0 -13 -8 -16 -17z m-124 -33 c0 -5 -4 -10 -10 -10 -5
0 -10 5 -10 10 0 6 5 10 10 10 6 0 10 -4 10 -10z"/>
<path d="M2153 1734 c-11 -24 -8 -54 6 -54 3 0 6 10 7 23 0 12 4 30 8 40 13
28 -8 20 -21 -9z"/>
<path d="M2189 1726 c-21 -45 -12 -60 24 -41 16 8 27 10 27 3 0 -5 7 -8 15 -4
8 3 15 0 15 -7 0 -6 7 -1 16 12 12 17 19 20 25 10 6 -10 10 -10 23 0 13 11 16
11 16 -3 0 -9 3 -16 8 -16 11 1 47 30 36 30 -6 0 -15 -5 -22 -12 -10 -10 -11
-5 -6 22 l7 35 -21 -19 c-14 -12 -22 -15 -22 -6 0 6 -6 10 -14 7 -8 -3 -17 -1
-19 6 -3 7 -10 -1 -16 -16 -14 -35 -30 -28 -24 10 4 27 3 26 -14 -6 -19 -36
-43 -52 -43 -29 0 7 7 24 16 36 12 17 12 22 2 22 -8 0 -21 -15 -29 -34z"/>
<path d="M1876 1731 c-18 -20 -21 -51 -6 -51 6 0 10 8 10 18 0 24 19 42 36 35
8 -3 14 -1 14 4 0 16 -38 12 -54 -6z"/>
<path d="M173 1620 c-85 -51 -81 -179 6 -225 116 -60 239 71 171 182 -37 61
-116 81 -177 43z"/>
<path d="M304 976 c-28 -28 -34 -42 -34 -76 0 -34 6 -48 34 -76 28 -28 42 -34
76 -34 34 0 48 6 76 34 48 48 48 104 0 152 -28 28 -42 34 -76 34 -34 0 -48 -6
-76 -34z"/>
<path d="M724 516 c-28 -28 -34 -42 -34 -76 0 -34 6 -48 34 -76 28 -28 42 -34
76 -34 34 0 48 6 76 34 28 28 34 42 34 76 0 34 -6 48 -34 76 -28 28 -42 34
-76 34 -34 0 -48 -6 -76 -34z"/>
<path d="M2115 461 c-3 -5 -2 -12 3 -15 5 -3 9 1 9 9 0 17 -3 19 -12 6z"/>
<path d="M2273 450 c-1 -11 2 -22 6 -24 4 -3 7 4 6 14 -2 27 -10 33 -12 10z"/>
<path d="M2261 396 c-10 -12 -8 -13 8 -9 12 3 18 9 15 14 -7 12 -10 11 -23 -5z"/>
<path d="M1453 320 c-61 -37 -79 -108 -43 -167 35 -58 102 -78 161 -48 63 33
86 112 49 172 -37 61 -108 79 -167 43z"/>
</g>
</svg>
